<mxfile host="app.diagrams.net" modified="2024-02-14T10:18:49.938Z" agent="Mozilla/5.0 (Windows NT 10.0; Win64; x64) AppleWebKit/537.36 (KHTML, like Gecko) Chrome/121.0.0.0 Safari/537.36" etag="-HFELzRMQZc1NtOfKxJ0" version="23.1.4" type="device">
  <diagram name="페이지-1" id="UHd12sqgt9uCzFnl7zZL">
    <mxGraphModel dx="1434" dy="772" grid="1" gridSize="10" guides="1" tooltips="1" connect="1" arrows="1" fold="1" page="1" pageScale="1" pageWidth="827" pageHeight="1169" math="0" shadow="0">
      <root>
        <mxCell id="0" />
        <mxCell id="1" parent="0" />
        <mxCell id="Y_KwXTOkiGE2uzCDDQhs-5" style="edgeStyle=orthogonalEdgeStyle;rounded=0;orthogonalLoop=1;jettySize=auto;html=1;exitX=0.5;exitY=1;exitDx=0;exitDy=0;strokeWidth=2;" edge="1" parent="1" source="Y_KwXTOkiGE2uzCDDQhs-1" target="Y_KwXTOkiGE2uzCDDQhs-2">
          <mxGeometry relative="1" as="geometry" />
        </mxCell>
        <mxCell id="Y_KwXTOkiGE2uzCDDQhs-1" value="스킬 해금&lt;br&gt;시작" style="rounded=1;whiteSpace=wrap;html=1;arcSize=50;" vertex="1" parent="1">
          <mxGeometry width="160" height="80" as="geometry" />
        </mxCell>
        <mxCell id="Y_KwXTOkiGE2uzCDDQhs-6" style="edgeStyle=orthogonalEdgeStyle;rounded=0;orthogonalLoop=1;jettySize=auto;html=1;exitX=1;exitY=0.5;exitDx=0;exitDy=0;strokeWidth=2;strokeColor=#990000;entryX=1;entryY=0.5;entryDx=0;entryDy=0;" edge="1" parent="1" source="Y_KwXTOkiGE2uzCDDQhs-2" target="Y_KwXTOkiGE2uzCDDQhs-4">
          <mxGeometry relative="1" as="geometry" />
        </mxCell>
        <mxCell id="Y_KwXTOkiGE2uzCDDQhs-8" style="edgeStyle=orthogonalEdgeStyle;rounded=0;orthogonalLoop=1;jettySize=auto;html=1;exitX=0.5;exitY=1;exitDx=0;exitDy=0;entryX=0.5;entryY=0;entryDx=0;entryDy=0;strokeWidth=2;" edge="1" parent="1" source="Y_KwXTOkiGE2uzCDDQhs-2" target="Y_KwXTOkiGE2uzCDDQhs-3">
          <mxGeometry relative="1" as="geometry" />
        </mxCell>
        <mxCell id="Y_KwXTOkiGE2uzCDDQhs-2" value="스킬 해금 조건을&lt;br&gt;모두 만족했는가" style="rhombus;whiteSpace=wrap;html=1;" vertex="1" parent="1">
          <mxGeometry y="120" width="160" height="80" as="geometry" />
        </mxCell>
        <mxCell id="Y_KwXTOkiGE2uzCDDQhs-7" style="edgeStyle=orthogonalEdgeStyle;rounded=0;orthogonalLoop=1;jettySize=auto;html=1;exitX=0.5;exitY=1;exitDx=0;exitDy=0;entryX=0.5;entryY=0;entryDx=0;entryDy=0;strokeWidth=2;" edge="1" parent="1" source="Y_KwXTOkiGE2uzCDDQhs-3" target="Y_KwXTOkiGE2uzCDDQhs-4">
          <mxGeometry relative="1" as="geometry" />
        </mxCell>
        <mxCell id="Y_KwXTOkiGE2uzCDDQhs-3" value="해당 스킬이&lt;br&gt;스킬창에 &lt;br&gt;비활성화 상태로 등장" style="whiteSpace=wrap;html=1;" vertex="1" parent="1">
          <mxGeometry y="240" width="160" height="80" as="geometry" />
        </mxCell>
        <mxCell id="Y_KwXTOkiGE2uzCDDQhs-4" value="종료" style="rounded=1;whiteSpace=wrap;html=1;arcSize=50;" vertex="1" parent="1">
          <mxGeometry y="360" width="160" height="80" as="geometry" />
        </mxCell>
      </root>
    </mxGraphModel>
  </diagram>
</mxfile>
